<svg xmlns="http://www.w3.org/2000/svg" version="1.1" xmlns:xlink="http://www.w3.org/1999/xlink" xmlns:svgjs="http://svgjs.dev/svgjs" width="1000" height="1000" viewBox="0 0 1000 1000"><rect width="1000" height="1000" fill="#ffffff"></rect><g transform="matrix(0.7,0,0,0.7,149.65000000000003,149.65000000000003)"><svg viewBox="0 0 280 280" data-background-color="#ffffff" preserveAspectRatio="xMidYMid meet" height="1000" width="1000" xmlns="http://www.w3.org/2000/svg" xmlns:xlink="http://www.w3.org/1999/xlink"><g id="tight-bounds" transform="matrix(1,0,0,1,0.13999999999998636,0.13999999999998636)"><svg viewBox="0 0 279.72 279.72" height="279.72" width="279.72"><g><svg viewBox="0 0 279.72 279.72" height="279.72" width="279.72"><g><svg viewBox="0 0 279.72 279.72" height="279.72" width="279.72"><g id="textblocktransform"><svg viewBox="0 0 279.72 279.72" height="279.72" width="279.72" id="textblock"><g><svg viewBox="0 0 279.72 279.72" height="279.72" width="279.72"><g transform="matrix(1,0,0,1,57.446704652707865,57.446704652707865)"><svg viewBox="0 0 164.8265906945843 164.8265906945843" height="164.8265906945843" width="164.8265906945843"><g><circle r="82" cx="82.41329534729215" cy="82.41329534729215" fill="#4b91f1" data-fill-palette-color="accent"></circle><svg xmlns="http://www.w3.org/2000/svg" xmlns:xlink="http://www.w3.org/1999/xlink" version="1.0" x="24.72398860418764" y="24.723988604187646" viewBox="4.667734146118164 4.6859588623046875 90.3050308227539 90.30465698242188" enable-background="new 0 0 100 100" xml:space="preserve" height="115.378613486209" width="115.378613486209" class="icon-o-0" data-fill-palette-color="quaternary" id="o-0"><path d="M17.504 35.743c-1.334 8.611 0.522 17.134 5.093 23.382 3.514 4.801 8.413 7.905 13.796 8.739 5.677 0.88 11.253-0.429 15.703-3.685 1.248-0.912 2.36-1.946 3.326-3.076-2.222 0.978-4.814 1.267-7.626 0.831-11.717-1.816-19.673-13.464-17.735-25.964 0.934-6.03 4.384-11.497 9.713-15.397 6.768-4.952 15.953-6.97 25.201-5.537 7.474 1.158 17.67 5.964 25.56 15.213 0 0-22.835-39.421-56.115-20.356C23.689 16.04 18.653 28.323 17.504 35.743z" fill="#ffffff" data-fill-palette-color="quaternary"></path><path d="M82.544 65.256c1.659-8.555 0.125-17.141-4.207-23.557-3.331-4.931-8.109-8.217-13.457-9.253-5.639-1.094-11.261 0.004-15.83 3.091-1.282 0.863-2.431 1.854-3.44 2.947 2.257-0.894 4.859-1.084 7.652-0.543 11.64 2.257 19.151 14.196 16.744 26.616-1.161 5.989-4.815 11.324-10.288 15.019-6.949 4.692-16.205 6.364-25.393 4.582C26.902 82.719 16.894 77.532 9.358 67.992c0 0 21.331 40.255 55.307 22.457C75.621 84.712 81.115 72.628 82.544 65.256z" fill="#ffffff" data-fill-palette-color="quaternary"></path><path d="M35.726 82.88c8.611 1.334 17.133-0.522 23.381-5.094 4.801-3.514 7.905-8.413 8.74-13.796 0.879-5.676-0.429-11.253-3.686-15.702-0.912-1.248-1.946-2.36-3.076-3.327 0.979 2.222 1.267 4.815 0.831 7.626-1.816 11.717-13.463 19.673-25.965 17.736-6.029-0.934-11.497-4.385-15.395-9.713-4.952-6.768-6.971-15.954-5.538-25.202 1.158-7.474 5.964-17.67 15.213-25.559 0 0-39.421 22.835-20.356 56.115C16.022 76.695 28.305 81.73 35.726 82.88z" fill="#ffffff" data-fill-palette-color="quaternary"></path><path d="M90.432 35.718c-5.738-10.955-17.822-16.45-25.194-17.879-8.554-1.659-17.141-0.125-23.557 4.208-4.931 3.331-8.217 8.108-9.254 13.456-1.094 5.64 0.004 11.261 3.092 15.83 0.863 1.282 1.854 2.431 2.946 3.441-0.894-2.257-1.084-4.859-0.542-7.652 2.257-11.64 14.196-19.151 26.615-16.744 5.99 1.161 11.324 4.816 15.019 10.289 4.693 6.949 6.363 16.204 4.583 25.392-1.44 7.423-6.626 17.431-16.167 24.966C67.973 91.025 108.228 69.694 90.432 35.718z" fill="#ffffff" data-fill-palette-color="quaternary"></path></svg></g></svg></g><g><path d="M27.966 112.264c1.598 0.514 2.796 1.172 3.597 1.973 0.804 0.809 1.077 1.616 0.818 2.421v0c-0.278 0.863-0.861 1.151-1.749 0.865v0l-1.09-0.393c-0.53-0.171-0.991-0.164-1.382 0.021-0.395 0.176-0.675 0.52-0.839 1.03v0c-0.154 0.479-0.124 0.912 0.09 1.299 0.206 0.391 0.561 0.667 1.066 0.829v0c0.837 0.269 1.66 0.101 2.469-0.506 0.815-0.605 1.414-1.502 1.796-2.69v0c0.302-0.939 0.376-1.892 0.222-2.859-0.146-0.971-0.505-1.827-1.077-2.568v0c-0.51-0.672-1.211-1.254-2.104-1.746-0.884-0.496-2.15-1.009-3.799-1.54v0l-23.427-7.54 0.696-3.214-0.307-0.099-2.946 9.154 0.307 0.099 1.309-3.016z" fill="#77d4fc" data-fill-palette-color="primary"></path><path d="M21.813 61.397c1.327-1.898 3.065-3.271 5.215-4.119 2.149-0.848 4.441-1.097 6.874-0.747 2.43 0.356 4.734 1.295 6.913 2.819v0c2.179 1.523 3.852 3.365 5.02 5.525 1.164 2.166 1.717 4.403 1.659 6.713-0.059 2.31-0.752 4.414-2.079 6.312v0c-1.327 1.898-3.065 3.271-5.215 4.119-2.149 0.848-4.441 1.097-6.875 0.747-2.43-0.356-4.734-1.295-6.913-2.819v0c-2.179-1.523-3.852-3.365-5.02-5.525-1.164-2.166-1.717-4.403-1.658-6.713 0.059-2.31 0.752-4.414 2.079-6.312zM28.605 76.811c3.642 2.547 6.883 3.887 9.722 4.021 2.844 0.138 5.067-0.938 6.667-3.226v0c1.6-2.289 1.848-4.745 0.742-7.37-1.1-2.621-3.471-5.204-7.113-7.751v0c-3.642-2.547-6.888-3.891-9.738-4.032-2.855-0.145-5.083 0.926-6.684 3.215v0c-1.6 2.289-1.842 4.749-0.726 7.381 1.111 2.628 3.488 5.216 7.13 7.762z" fill="#77d4fc" data-fill-palette-color="primary"></path><path d="M69.831 34.404c2.094-1.038 3.984-1.403 5.67-1.094 1.687 0.3 3.075 1.252 4.164 2.858v0c1.194 1.761 1.587 3.657 1.178 5.686-0.409 2.029-1.88 3.902-4.414 5.62v0l-9.743 6.605-0.181-0.266 2.533-2.095-14.73-21.729-2.89 1.57-0.181-0.267 8.227-5.577c2.6-1.763 4.896-2.642 6.886-2.637 1.992-0.004 3.585 0.874 4.78 2.636v0c0.957 1.411 1.317 2.87 1.081 4.376-0.23 1.503-1.054 2.896-2.47 4.181v0zM59.635 26.183l-2.876 1.949 6.871 10.135 3.834-2.599c1.472-0.998 2.244-2.146 2.314-3.442 0.066-1.302-0.475-2.8-1.624-4.495v0c-2.268-3.345-5.107-3.861-8.519-1.548zM75.366 47.611c3.412-2.313 3.82-5.384 1.224-9.212v0c-1.356-2-2.769-3.163-4.238-3.489-1.472-0.316-3.055 0.1-4.75 1.249v0l-3.7 2.508 7.763 11.453z" fill="#77d4fc" data-fill-palette-color="primary"></path><path d="M113.256 4.033l9.301-2.106 0.071 0.315-2.738 0.95c-0.606 0.213-0.983 0.46-1.133 0.742-0.156 0.283-0.164 0.736-0.023 1.357v0l5.682 25.093-0.393 0.089-23.082-20.822-0.147 0.033 4.932 21.783c0.141 0.622 0.315 1.04 0.522 1.255 0.213 0.213 0.559 0.293 1.035 0.241v0l2.839-0.323 0.071 0.314-8.525 1.93-0.071-0.314 2.73-0.938c0.46-0.159 0.736-0.38 0.831-0.663 0.101-0.284 0.081-0.738-0.06-1.36v0l-5.128-22.647-0.209-0.19c-0.479-0.442-0.9-0.708-1.264-0.798-0.359-0.098-0.85-0.076-1.472 0.065v0l-0.668 0.151-0.071-0.314 5.804-1.314 20.194 18.007 0.157-0.036-4.325-19.102c-0.141-0.622-0.319-1.046-0.536-1.272-0.215-0.22-0.558-0.29-1.029-0.211v0l-3.224 0.399z" fill="#77d4fc" data-fill-palette-color="primary"></path><path d="M168.18 23.022l0.434 0.099-2.097 8.172-19.383-2.587 0.043-0.319 3.285 0.123 3.472-26.02-3.201-0.753 0.043-0.319 19.423 2.592-0.443 7.509-0.395-0.012-1.476-5.835c-0.159-0.637-0.362-1.068-0.61-1.29-0.256-0.217-0.699-0.368-1.332-0.452v0l-8.943-1.194-1.62 12.137 5.859 0.782c0.632 0.084 1.095 0.038 1.39-0.14 0.287-0.172 0.524-0.553 0.712-1.144v0l1.096-3.115 0.479 0.064-1.351 10.121-0.479-0.064-0.241-3.293c-0.026-0.62-0.154-1.053-0.385-1.301-0.238-0.248-0.673-0.415-1.305-0.499v0l-5.859-0.782-1.81 13.564 8.863 1.183c0.632 0.084 1.107 0.05 1.426-0.104 0.313-0.161 0.628-0.516 0.945-1.063v0z" fill="#77d4fc" data-fill-palette-color="primary"></path><path d="M207.384 48.957l2.704 1.87-0.157 0.281-8.878-4.963 0.158-0.281 3.176 1.418-1.388-14.77-12.403 5.595c-0.488 0.212-0.777 0.4-0.869 0.563v0c-0.066 0.117-0.038 0.248 0.081 0.392 0.12 0.144 0.341 0.333 0.664 0.567v0l1.888 1.286-0.157 0.282-7.102-3.971 0.157-0.281 1.854 0.852c0.58 0.27 1.071 0.403 1.474 0.397 0.397-0.009 0.883-0.141 1.456-0.397v0l12.916-5.85-1.538-16.4-2.69-1.873 0.157-0.281 8.877 4.963-0.157 0.281-3.19-1.414 1.32 14.086 11.781-5.308c0.501-0.235 0.79-0.423 0.869-0.564v0c0.066-0.117 0.037-0.245-0.086-0.383-0.12-0.144-0.339-0.336-0.658-0.575v0l-1.888-1.287 0.157-0.281 7.102 3.97-0.158 0.282-1.854-0.852c-0.583-0.264-1.071-0.395-1.465-0.392-0.403 0.005-0.888 0.138-1.456 0.397v0l-12.302 5.558z" fill="#77d4fc" data-fill-palette-color="primary"></path><path d="M255.312 61.857c0.489-0.41 0.774-0.754 0.856-1.032 0.082-0.279-0.002-0.624-0.252-1.037v0l-1.576-2.384 0.247-0.207 5.613 6.7-0.247 0.207-2.09-1.993c-0.363-0.318-0.688-0.461-0.977-0.429-0.289 0.032-0.677 0.252-1.167 0.661v0l-11.739 9.837c-1.286 1.078-2.439 1.877-3.457 2.397-1.019 0.53-2.005 0.848-2.958 0.954v0c-1.254 0.113-2.513-0.119-3.777-0.698-1.26-0.573-2.377-1.442-3.351-2.604v0c-0.785-0.937-1.409-1.99-1.873-3.161-0.468-1.175-0.692-2.289-0.67-3.34v0c0.02-1.094 0.348-2.135 0.983-3.122 0.634-0.978 1.705-2.099 3.213-3.362v0l13.732-11.505-1.855-2.716 0.247-0.207 6.305 7.526-0.247 0.207-2.478-2.456-14.735 12.345c-1.492 1.25-2.52 2.344-3.084 3.281-0.565 0.946-0.766 1.908-0.605 2.884v0c0.088 0.513 0.284 1.076 0.587 1.689 0.303 0.613 0.686 1.195 1.147 1.745v0c0.854 1.019 1.844 1.788 2.971 2.307 1.122 0.514 2.275 0.708 3.458 0.583v0c0.895-0.093 1.794-0.378 2.698-0.855 0.9-0.473 1.962-1.223 3.187-2.249v0z" fill="#77d4fc" data-fill-palette-color="primary"></path><path d="M250.59 106.954c0.589 1.536 1.442 2.794 2.559 3.774 1.117 0.981 2.373 1.603 3.768 1.866 1.395 0.263 2.813 0.118 4.255-0.436v0c1.291-0.495 2.272-1.191 2.941-2.088 0.663-0.894 1.119-1.91 1.366-3.048 0.249-1.131 0.423-2.571 0.521-4.319v0c0.134-1.957 0.299-3.494 0.495-4.613 0.203-1.12 0.577-2.076 1.122-2.867 0.551-0.794 1.375-1.401 2.472-1.822v0c1.51-0.58 2.884-0.578 4.121 0.004 1.235 0.576 2.148 1.635 2.74 3.177v0c0.981 2.557 0.431 4.947-1.65 7.169v0c-1.028 1.106-2.3 2.177-3.816 3.211v0l0.257 0.332 7.979-3.492-0.184-0.479-2.138-0.205c0.404-1.327 0.613-2.497 0.627-3.508 0.006-1.016-0.186-2.032-0.576-3.047v0c-0.563-1.467-1.369-2.66-2.419-3.58-1.053-0.926-2.244-1.512-3.575-1.756-1.337-0.242-2.688-0.101-4.055 0.423v0c-1.335 0.512-2.353 1.251-3.053 2.217-0.698 0.973-1.163 2.028-1.395 3.167-0.229 1.145-0.38 2.515-0.451 4.11v0c-0.084 1.937-0.221 3.471-0.413 4.602-0.194 1.124-0.575 2.101-1.142 2.929-0.564 0.835-1.404 1.466-2.519 1.894v0c-1.592 0.611-3.045 0.59-4.36-0.063-1.319-0.645-2.322-1.863-3.01-3.656v0c-0.798-2.081-0.732-4.026 0.199-5.836v0c0.458-0.887 1.082-1.706 1.873-2.455 0.8-0.745 1.97-1.63 3.512-2.652v0l-0.192-0.304-8.719 3.895 0.187 0.489 2.349-0.006c-0.35 1.019-0.497 2.143-0.442 3.373 0.061 1.228 0.317 2.427 0.766 3.6z" fill="#77d4fc" data-fill-palette-color="primary"></path><path d="M14.687 183.359c-0.613 0.175-1.134 0.222-1.561 0.141-0.423-0.089-0.679-0.288-0.768-0.598v0c-0.094-0.329 0.03-0.543 0.373-0.64v0l0.429-0.112c0.2-0.057 0.344-0.154 0.43-0.29 0.091-0.145 0.11-0.314 0.055-0.507v0c-0.053-0.187-0.157-0.318-0.311-0.393-0.149-0.083-0.321-0.097-0.515-0.042v0c-0.323 0.092-0.548 0.32-0.674 0.684-0.127 0.364-0.125 0.775 0.006 1.234v0c0.103 0.362 0.281 0.681 0.535 0.957 0.253 0.277 0.546 0.473 0.879 0.587v0c0.308 0.101 0.653 0.135 1.034 0.103 0.39-0.027 0.901-0.131 1.535-0.311v0l9.016-2.569 0.455 1.158 0.126-0.036-1.004-3.525-0.126 0.036 0.226 1.234z" fill="#77d4fc" data-fill-palette-color="primary"></path><path d="M28.132 188.951c0.295 0.828 0.335 1.673 0.121 2.533-0.21 0.851-0.639 1.617-1.288 2.297-0.645 0.671-1.444 1.177-2.399 1.517v0c-0.955 0.34-1.898 0.455-2.828 0.344-0.926-0.119-1.743-0.441-2.45-0.967-0.703-0.534-1.202-1.215-1.497-2.043v0c-0.295-0.828-0.339-1.672-0.13-2.529 0.216-0.854 0.646-1.619 1.288-2.297 0.649-0.68 1.451-1.19 2.405-1.53v0c0.955-0.34 1.895-0.45 2.822-0.331 0.932 0.117 1.749 0.439 2.449 0.967 0.709 0.531 1.211 1.211 1.507 2.039zM21.844 187.652c-1.594 0.567-2.727 1.277-3.4 2.129-0.673 0.852-0.83 1.781-0.472 2.787v0c0.356 0.999 1.065 1.62 2.127 1.862 1.06 0.235 2.387 0.07 3.98-0.498v0c1.594-0.567 2.727-1.277 3.4-2.13 0.677-0.861 0.837-1.791 0.482-2.79v0c-0.358-1.006-1.07-1.625-2.137-1.858-1.06-0.235-2.387-0.07-3.98 0.498z" fill="#77d4fc" data-fill-palette-color="primary"></path><path d="M30.153 195.297l0.12-0.053 1.476 3.355-0.12 0.053-0.613-1.095-9.153 4.028 0.393 1.191-0.111 0.049-1.476-3.355 0.11-0.048 0.614 1.094 9.152-4.028z" fill="#77d4fc" data-fill-palette-color="primary"></path><path d="M35.665 206.075l1.706 3.209-0.115 0.062-0.622-0.913c-0.137-0.201-0.266-0.315-0.387-0.341-0.115-0.03-0.282 0.013-0.501 0.129v0l-8.652 4.6-0.07-0.134 5.339-10.57-0.028-0.054-7.513 3.995c-0.213 0.113-0.347 0.219-0.402 0.316-0.061 0.101-0.057 0.236 0.01 0.405v0l0.399 1.008-0.107 0.057-1.56-2.934 0.107-0.057 0.617 0.904c0.106 0.157 0.218 0.238 0.335 0.243 0.111 0.009 0.274-0.043 0.487-0.156v0l7.815-4.155 0.052-0.096c0.112-0.219 0.167-0.401 0.167-0.545-0.007-0.141-0.067-0.318-0.18-0.531v0l-0.123-0.231 0.115-0.062 1.064 2.001-4.603 9.232 0.029 0.054 6.588-3.503c0.219-0.117 0.359-0.225 0.42-0.326 0.057-0.107 0.047-0.241-0.033-0.404v0l-0.47-1.142z" fill="#77d4fc" data-fill-palette-color="primary"></path><path d="M37.015 226.843l0.612 1.11-0.098 0.07-2.175-3.025 0.098-0.07 0.851 0.925 2.329-3.436-2.145-2.984-3.472 0.934c-0.116 0.034-0.202 0.07-0.256 0.109v0c-0.093 0.067-0.138 0.141-0.137 0.223 0.006 0.078 0.052 0.194 0.138 0.347v0l0.475 0.8-0.098 0.07-1.893-2.632 0.099-0.071 0.565 0.648c0.161 0.19 0.306 0.305 0.434 0.345 0.128 0.04 0.306 0.028 0.532-0.036v0l10.236-2.771 0.159 0.221zM36.736 219.366l2.04 2.837 2.767-4.086-0.035-0.049z" fill="#77d4fc" data-fill-palette-color="primary"></path><path d="M51.455 228.48l-7.461 6.777-1.193-1.133-0.09 0.081 3 3.302 0.089-0.081-1.021-1.304 7.461-6.778 1.496 1.647c0.163 0.179 0.253 0.333 0.27 0.462 0.013 0.134-0.036 0.31-0.146 0.528v0l-1.1 2.278 0.104 0.069 2.221-2.467-0.061-0.067c-0.224-0.096-0.402-0.193-0.535-0.289-0.124-0.096-0.267-0.234-0.43-0.413v0l-3.94-4.337c-0.163-0.179-0.286-0.334-0.37-0.467-0.084-0.142-0.162-0.329-0.237-0.56v0l-0.061-0.068-2.844 1.782 0.059 0.109 2.441-0.802c0.241-0.074 0.428-0.098 0.559-0.073 0.131 0.035 0.278 0.142 0.441 0.32v0z" fill="#77d4fc" data-fill-palette-color="primary"></path><path d="M56.874 243.879l0.112 0.131-2.457 2.073-5.449-5.083 0.082-0.088 0.996 0.763 6.821-7.311-0.831-0.94 0.089-0.096 5.464 5.097-1.796 2.235-0.125-0.088 0.831-2.145c0.087-0.231 0.119-0.408 0.095-0.531-0.033-0.122-0.137-0.266-0.314-0.431v0l-2.518-2.349-3.18 3.409 1.649 1.539c0.177 0.165 0.329 0.252 0.458 0.262 0.129 0.01 0.288-0.057 0.477-0.202v0l1.03-0.72 0.132 0.124-2.651 2.842-0.133-0.123 0.647-1.077c0.131-0.199 0.187-0.363 0.168-0.491-0.019-0.128-0.116-0.274-0.293-0.438v0l-1.649-1.539-3.558 3.814 2.496 2.329c0.177 0.165 0.33 0.257 0.458 0.276 0.138 0.019 0.318-0.021 0.538-0.118v0z" fill="#77d4fc" data-fill-palette-color="primary"></path><path d="M63.831 253.075l0.905 0.888-0.074 0.096-2.951-2.275 0.074-0.095 1.081 0.642 1.247-3.959-2.911-2.244-3.058 1.889c-0.102 0.066-0.173 0.125-0.214 0.178v0c-0.07 0.09-0.092 0.175-0.068 0.253 0.029 0.073 0.106 0.171 0.232 0.293v0l0.684 0.63-0.073 0.095-2.568-1.979 0.073-0.096 0.728 0.459c0.209 0.136 0.381 0.204 0.514 0.206 0.134 0.002 0.301-0.06 0.5-0.187v0l9.013-5.588 0.215 0.166zM61.421 245.992l2.768 2.133 1.48-4.707-0.048-0.037z" fill="#77d4fc" data-fill-palette-color="primary"></path><path d="M81.873 252.766l-1.18-0.602-5.338 8.455 1.051 0.806-0.065 0.103-3.159-1.995 0.065-0.102 1.112 0.559 4.94-7.825-0.051-0.032-8.289 6.282-0.137-0.086 1.753-10.433-0.051-0.032-4.586 7.262c-0.129 0.204-0.193 0.362-0.192 0.475-0.003 0.117 0.07 0.235 0.218 0.352v0l0.847 0.677-0.065 0.102-2.818-1.779 0.064-0.102 0.993 0.483c0.164 0.08 0.298 0.093 0.403 0.041 0.101-0.047 0.216-0.173 0.346-0.378v0l4.87-7.714c0.008-0.138-0.021-0.256-0.087-0.352-0.069-0.091-0.189-0.191-0.359-0.299v0l-0.596-0.376 0.07-0.111 2.196 1.387-1.601 9.552 0.051 0.033 7.596-5.768 2.069 1.306z" fill="#77d4fc" data-fill-palette-color="primary"></path><path d="M90.612 257.099l-4.155 9.183-1.545-0.567-0.05 0.11 4.064 1.839 0.05-0.11-1.455-0.791 4.155-9.183 2.028 0.917c0.22 0.1 0.364 0.205 0.431 0.317 0.065 0.118 0.09 0.298 0.075 0.543v0l-0.105 2.527 0.123 0.023 1.059-3.146-0.083-0.038c-0.243 0-0.445-0.017-0.606-0.053-0.152-0.039-0.338-0.109-0.558-0.208v0l-5.339-2.416c-0.22-0.1-0.395-0.194-0.525-0.282-0.133-0.097-0.28-0.237-0.439-0.42v0l-0.083-0.037-1.903 2.764 0.098 0.077 1.921-1.706c0.192-0.164 0.353-0.26 0.485-0.289 0.134-0.02 0.312 0.019 0.532 0.119v0z" fill="#77d4fc" data-fill-palette-color="primary"></path><path d="M106.181 262.994l-1.219-0.295-3.28 9.446 1.14 0.524-0.039 0.114-3.53-1.225 0.04-0.115 1.286 0.319 1.691-4.871-4.785-1.661-1.691 4.871 1.216 0.55-0.04 0.114-3.538-1.228 0.039-0.115 1.219 0.296 3.28-9.446-1.14-0.524 0.043-0.124 3.538 1.229-0.043 0.123-1.295-0.321-1.509 4.347 4.785 1.661 1.509-4.347-1.206-0.547 0.042-0.124 3.53 1.226z" fill="#77d4fc" data-fill-palette-color="primary"></path><path d="M113.516 275.142l1.189 0.439-0.028 0.118-3.624-0.865 0.028-0.118 1.25 0.143-0.486-4.122-3.575-0.854-2.015 2.977c-0.066 0.102-0.106 0.185-0.122 0.25v0c-0.026 0.111-0.013 0.197 0.042 0.259 0.056 0.055 0.166 0.112 0.332 0.172v0l0.882 0.294-0.028 0.117-3.154-0.753 0.028-0.117 0.851 0.12c0.246 0.038 0.431 0.03 0.555-0.023 0.123-0.053 0.25-0.179 0.379-0.375v0l5.929-8.792 0.265 0.063zM108.414 269.669l3.399 0.811-0.58-4.9-0.058-0.014z" fill="#77d4fc" data-fill-palette-color="primary"></path><path d="M120.731 266.248l-1.612 9.95-1.639-0.143-0.019 0.119 4.403 0.713 0.019-0.119-1.611-0.383 1.612-9.95 2.197 0.356c0.239 0.039 0.405 0.103 0.499 0.193 0.093 0.097 0.165 0.265 0.214 0.504v0l0.56 2.467 0.124-0.011 0.2-3.313-0.09-0.014c-0.235 0.064-0.434 0.1-0.599 0.107-0.157 0.002-0.354-0.017-0.592-0.056v0l-5.786-0.937c-0.239-0.039-0.432-0.084-0.58-0.135-0.154-0.059-0.332-0.156-0.534-0.29v0l-0.089-0.015-1.115 3.166 0.114 0.049 1.409-2.149c0.143-0.208 0.273-0.343 0.393-0.405 0.124-0.055 0.306-0.063 0.544-0.024v0z" fill="#77d4fc" data-fill-palette-color="primary"></path><path d="M131.709 267.571l0.008-0.13 3.659 0.22-0.008 0.13-1.254 0.046-0.6 9.981 1.239 0.196-0.007 0.12-3.659-0.22 0.008-0.12 1.253-0.046 0.601-9.981z" fill="#77d4fc" data-fill-palette-color="primary"></path><path d="M143.815 267.594l3.635-0.051 0.002 0.131-1.096 0.136c-0.241 0.03-0.402 0.093-0.481 0.188-0.079 0.088-0.117 0.257-0.114 0.505v0l0.138 9.797-0.151 0.002-6.963-9.58-0.06 0.001 0.119 8.508c0.003 0.242 0.036 0.409 0.098 0.502 0.062 0.1 0.183 0.159 0.365 0.176v0l1.079 0.106 0.002 0.121-3.323 0.046-0.002-0.121 1.086-0.136c0.188-0.023 0.311-0.085 0.37-0.186 0.059-0.095 0.087-0.263 0.084-0.505v0l-0.124-8.85-0.062-0.09c-0.144-0.199-0.28-0.332-0.408-0.397-0.128-0.059-0.313-0.086-0.555-0.083v0l-0.262 0.004-0.002-0.131 2.265-0.032 6.109 8.313 0.06-0.001-0.104-7.46c-0.003-0.248-0.036-0.422-0.098-0.523-0.069-0.1-0.193-0.152-0.375-0.156v0l-1.23-0.103z" fill="#77d4fc" data-fill-palette-color="primary"></path><path d="M153.306 277.77c0.622-0.059 1.171-0.242 1.647-0.55 0.477-0.308 0.834-0.706 1.071-1.193 0.237-0.488 0.328-1.022 0.273-1.604v0c-0.05-0.528-0.205-0.958-0.466-1.291-0.261-0.339-0.587-0.612-0.977-0.818-0.39-0.206-0.902-0.417-1.537-0.634v0c-0.705-0.25-1.251-0.468-1.639-0.654-0.388-0.186-0.701-0.423-0.937-0.71-0.236-0.281-0.374-0.642-0.416-1.084v0c-0.058-0.615 0.083-1.12 0.423-1.517 0.34-0.396 0.824-0.624 1.453-0.683v0c1.036-0.098 1.857 0.351 2.463 1.345v0c0.296 0.491 0.556 1.067 0.78 1.727v0l0.156-0.065-0.472-3.283-0.191 0.018-0.291 0.765c-0.445-0.282-0.854-0.479-1.229-0.591-0.374-0.106-0.765-0.14-1.173-0.102v0c-0.595 0.056-1.118 0.23-1.569 0.522-0.444 0.291-0.78 0.67-1.005 1.137-0.226 0.466-0.312 0.977-0.26 1.532v0c0.051 0.541 0.218 0.991 0.501 1.348 0.283 0.351 0.622 0.629 1.02 0.834 0.396 0.199 0.884 0.395 1.461 0.591v0c0.702 0.224 1.251 0.428 1.646 0.613 0.396 0.192 0.715 0.431 0.958 0.718 0.25 0.293 0.397 0.667 0.44 1.122v0c0.061 0.648-0.098 1.179-0.477 1.593-0.372 0.419-0.918 0.663-1.64 0.731v0c-0.849 0.08-1.558-0.143-2.126-0.669v0c-0.28-0.257-0.516-0.572-0.707-0.945-0.196-0.366-0.401-0.886-0.612-1.56v0l-0.138 0.043 0.543 3.6 0.19-0.018 0.242-0.862c0.339 0.231 0.736 0.399 1.191 0.504 0.462 0.105 0.93 0.135 1.404 0.09z" fill="#77d4fc" data-fill-palette-color="primary"></path><path d="M162.363 271.634l-1.408 0.245 0.742 4.256 1.489-0.137 0.021 0.119-3.849 0.672-0.021-0.12 1.209-0.333-1.718-9.85-1.251 0.095-0.023-0.129 3.79-0.661c1.171-0.204 2.11-0.109 2.819 0.285 0.715 0.386 1.152 1.036 1.312 1.948v0c0.168 0.966-0.014 1.757-0.547 2.375-0.533 0.618-1.388 1.029-2.565 1.235zM161.337 265.986l-1.369 0.239 0.955 5.476 1.369-0.239c0.807-0.141 1.356-0.472 1.647-0.993 0.29-0.528 0.347-1.291 0.173-2.289v0c-0.144-0.827-0.425-1.439-0.842-1.836-0.409-0.392-1.053-0.511-1.933-0.358z" fill="#77d4fc" data-fill-palette-color="primary"></path><path d="M166.7 264.88l-0.03-0.127 3.565-0.851 0.03 0.127-1.186 0.407 2.321 9.727 1.242-0.173 0.028 0.118-3.565 0.851-0.028-0.118 1.186-0.407-2.32-9.726z" fill="#77d4fc" data-fill-palette-color="primary"></path><path d="M183.675 270.611l0.201-0.064 0.036 0.116-1.499 0.469c-0.231 0.072-0.415 0.091-0.552 0.057-0.135-0.028-0.297-0.118-0.485-0.27v0l-3.342-2.89c-0.205-0.182-0.36-0.285-0.466-0.308-0.112-0.021-0.284 0.004-0.514 0.077v0l-1.076 0.337 1.356 4.334 1.305-0.282 0.036 0.115-3.575 1.119-0.036-0.115 1.156-0.488-2.988-9.543-1.227 0.258-0.039-0.125 3.671-1.149c1.14-0.357 2.084-0.399 2.83-0.127 0.747 0.273 1.256 0.845 1.529 1.717v0c0.211 0.673 0.198 1.285-0.037 1.836-0.229 0.55-0.666 1.018-1.312 1.403v0l0.019-0.006 3.952 3.321c0.188 0.152 0.35 0.242 0.485 0.27 0.144 0.032 0.334 0.011 0.572-0.062zM175.655 262.453l-1.326 0.416 1.58 5.045 1.326-0.415c0.775-0.243 1.284-0.627 1.527-1.154 0.243-0.526 0.231-1.216-0.035-2.068v0c-0.271-0.865-0.66-1.446-1.169-1.744-0.506-0.292-1.141-0.318-1.903-0.08z" fill="#77d4fc" data-fill-palette-color="primary"></path><path d="M191.17 264.309l0.166-0.045 0.83 3.106-6.92 2.765-0.045-0.112 1.115-0.575-3.711-9.285-1.204 0.351-0.049-0.122 6.938-2.773 1.258 2.577-0.133 0.075-1.587-1.664c-0.172-0.177-0.318-0.281-0.439-0.313-0.125-0.022-0.299 0.011-0.524 0.101v0l-3.198 1.278 1.731 4.329 2.094-0.837c0.224-0.09 0.368-0.191 0.432-0.303 0.064-0.112 0.071-0.285 0.021-0.517v0l-0.213-1.238 0.168-0.068 1.443 3.61-0.169 0.067-0.699-1.044c-0.125-0.203-0.249-0.324-0.372-0.361-0.123-0.037-0.297-0.011-0.521 0.079v0l-2.095 0.837 1.936 4.843 3.17-1.267c0.224-0.09 0.373-0.189 0.445-0.297 0.076-0.117 0.117-0.296 0.122-0.536v0z" fill="#77d4fc" data-fill-palette-color="primary"></path><path d="M198.421 264.656c0.56-0.276 1.008-0.642 1.344-1.099 0.336-0.457 0.528-0.956 0.577-1.496 0.048-0.54-0.056-1.072-0.314-1.596v0c-0.234-0.476-0.532-0.823-0.894-1.042-0.365-0.224-0.766-0.364-1.204-0.417-0.438-0.054-0.992-0.069-1.662-0.047v0c-0.748 0.016-1.336 0.007-1.765-0.029-0.429-0.036-0.805-0.146-1.128-0.331-0.32-0.179-0.578-0.467-0.774-0.865v0c-0.273-0.554-0.32-1.077-0.143-1.568 0.177-0.491 0.549-0.876 1.115-1.155v0c0.934-0.459 1.86-0.332 2.781 0.382v0c0.451 0.354 0.899 0.8 1.342 1.337v0l0.123-0.116-1.608-2.901-0.171 0.084-0.001 0.82c-0.516-0.105-0.969-0.144-1.359-0.117-0.388 0.034-0.765 0.141-1.133 0.322v0c-0.536 0.264-0.963 0.612-1.281 1.045-0.312 0.43-0.491 0.904-0.535 1.42-0.045 0.516 0.055 1.024 0.301 1.524v0c0.24 0.488 0.556 0.849 0.947 1.082 0.389 0.228 0.805 0.367 1.25 0.418 0.441 0.045 0.966 0.056 1.576 0.033v0c0.736-0.04 1.321-0.044 1.756-0.012 0.438 0.039 0.822 0.149 1.151 0.332 0.338 0.185 0.608 0.483 0.809 0.892v0c0.288 0.584 0.328 1.137 0.121 1.658-0.198 0.524-0.623 0.946-1.274 1.266v0c-0.765 0.376-1.507 0.42-2.225 0.13v0c-0.353-0.14-0.685-0.351-0.996-0.632-0.314-0.272-0.689-0.686-1.127-1.241v0l-0.113 0.089 1.786 3.173 0.171-0.084-0.08-0.893c0.399 0.096 0.829 0.112 1.292 0.049 0.469-0.066 0.917-0.204 1.345-0.415z" fill="#77d4fc" data-fill-palette-color="primary"></path><path d="M211.392 250.857l2.107 3.206c-0.014 0.443-0.141 0.88-0.38 1.31-0.239 0.43-0.569 0.784-0.99 1.061v0c-0.892 0.586-1.832 0.653-2.82 0.202-0.991-0.457-1.951-1.393-2.88-2.807v0c-0.929-1.414-1.405-2.663-1.427-3.749-0.026-1.091 0.409-1.932 1.307-2.522v0c0.488-0.321 1.002-0.498 1.542-0.531 0.54-0.034 1.073 0.074 1.598 0.323v0c0.533 0.26 1.075 0.676 1.626 1.246v0l0.143-0.167-2.006-2.778-0.168 0.11 0.1 0.814c-0.656 0.053-1.221 0.147-1.694 0.282-0.479 0.138-0.904 0.329-1.275 0.572v0c-0.729 0.479-1.265 1.125-1.607 1.936-0.34 0.802-0.457 1.67-0.35 2.603 0.111 0.939 0.441 1.827 0.991 2.663v0c0.557 0.847 1.242 1.505 2.056 1.974 0.811 0.463 1.656 0.699 2.537 0.707 0.883-0.002 1.691-0.244 2.426-0.727v0c0.438-0.288 0.896-0.709 1.374-1.264 0.473-0.552 0.788-1.148 0.945-1.79v0l-2.179-3.315 0.977-0.787-0.066-0.101-2.937 1.93 0.066 0.101z" fill="#77d4fc" data-fill-palette-color="primary"></path><path d="M224.908 246.636l0.166-0.131 0.075 0.094-1.229 0.979c-0.189 0.151-0.354 0.235-0.494 0.252-0.136 0.023-0.32-0.003-0.55-0.077v0l-4.16-1.488c-0.257-0.096-0.438-0.136-0.545-0.119-0.112 0.021-0.263 0.106-0.452 0.256v0l-0.882 0.703 2.829 3.552 1.115-0.733 0.075 0.094-2.93 2.334-0.075-0.094 0.901-0.873-6.23-7.821-1.051 0.683-0.082-0.102 3.009-2.397c0.935-0.744 1.799-1.124 2.594-1.139 0.795-0.015 1.476 0.334 2.045 1.049v0c0.439 0.551 0.649 1.127 0.629 1.726-0.015 0.595-0.254 1.189-0.718 1.782v0l0.016-0.013 4.884 1.671c0.23 0.074 0.414 0.099 0.55 0.077 0.146-0.022 0.316-0.11 0.51-0.265zM214.485 241.923l-1.086 0.866 3.293 4.135 1.087-0.866c0.635-0.506 0.971-1.048 1.009-1.627 0.037-0.579-0.223-1.217-0.78-1.915v0c-0.565-0.709-1.138-1.111-1.719-1.206-0.577-0.089-1.179 0.115-1.804 0.613z" fill="#77d4fc" data-fill-palette-color="primary"></path><path d="M229.624 238.054l0.139-0.102 1.894 2.598-5.455 5.076-0.082-0.088 0.832-0.94-6.812-7.32-0.996 0.763-0.089-0.096 5.469-5.09 2.103 1.949-0.097 0.118-2.08-0.98c-0.224-0.103-0.398-0.147-0.523-0.133-0.124 0.024-0.275 0.118-0.452 0.283v0l-2.521 2.346 3.176 3.414 1.651-1.537c0.177-0.165 0.275-0.311 0.294-0.438 0.019-0.128-0.037-0.291-0.168-0.491v0l-0.645-1.078 0.133-0.123 2.648 2.845-0.133 0.124-1.029-0.721c-0.19-0.145-0.349-0.212-0.477-0.202-0.129 0.01-0.281 0.097-0.458 0.261v0l-1.651 1.536 3.553 3.819 2.499-2.325c0.177-0.165 0.28-0.311 0.308-0.438 0.029-0.137 0.002-0.318-0.08-0.545v0z" fill="#77d4fc" data-fill-palette-color="primary"></path><path d="M239.289 231.765l0.95-0.84 0.09 0.08-2.477 2.783-0.091-0.08 0.718-1.033-3.862-1.524-2.444 2.745 1.669 3.184c0.058 0.106 0.113 0.181 0.162 0.226v0c0.085 0.076 0.168 0.104 0.248 0.086 0.075-0.023 0.178-0.094 0.309-0.211v0l0.676-0.638 0.09 0.08-2.156 2.422-0.09-0.08 0.509-0.693c0.15-0.199 0.231-0.365 0.242-0.499 0.011-0.134-0.039-0.304-0.151-0.512v0l-4.938-9.385 0.181-0.203zM232.053 233.668l2.324-2.61-4.591-1.809-0.041 0.045z" fill="#77d4fc" data-fill-palette-color="primary"></path><path d="M234.871 221.199l8.001 6.13-0.902 1.377 0.095 0.073 2.713-3.541-0.095-0.073-1.101 1.237-8.001-6.13 1.353-1.767c0.147-0.192 0.282-0.308 0.407-0.348 0.129-0.036 0.311-0.02 0.545 0.05v0l2.438 0.675 0.05-0.114-2.824-1.745-0.055 0.072c-0.055 0.237-0.118 0.43-0.19 0.578-0.073 0.139-0.182 0.304-0.329 0.496v0l-3.564 4.652c-0.147 0.192-0.278 0.341-0.393 0.448-0.125 0.107-0.294 0.219-0.509 0.333v0l-0.056 0.072 2.261 2.48 0.097-0.078-1.225-2.258c-0.116-0.224-0.173-0.403-0.172-0.537 0.011-0.136 0.09-0.299 0.237-0.491v0z" fill="#77d4fc" data-fill-palette-color="primary"></path><path d="M242.291 210.034l1.933-3.079 0.11 0.07-0.481 0.994c-0.106 0.219-0.14 0.388-0.103 0.506 0.031 0.115 0.152 0.238 0.362 0.37v0l8.298 5.209-0.081 0.128-11.825 0.637-0.033 0.051 7.207 4.525c0.205 0.129 0.363 0.192 0.474 0.19 0.117 0.002 0.233-0.068 0.346-0.21v0l0.676-0.848 0.102 0.064-1.767 2.814-0.102-0.064 0.476-0.985c0.083-0.17 0.098-0.307 0.044-0.412-0.047-0.101-0.174-0.216-0.378-0.345v0l-7.496-4.706-0.109 0.003c-0.246 0.012-0.431 0.055-0.555 0.127-0.119 0.076-0.243 0.216-0.371 0.42v0l-0.14 0.222-0.111-0.069 1.205-1.919 10.298-0.609 0.033-0.051-6.32-3.968c-0.21-0.132-0.374-0.199-0.491-0.201-0.121 0.003-0.233 0.08-0.335 0.23v0l-0.756 0.976z" fill="#77d4fc" data-fill-palette-color="primary"></path><path d="M254.804 202.307l0.096-0.143 2.664 1.8-3.406 6.627-0.108-0.055 0.463-1.166-8.893-4.571-0.678 1.055-0.116-0.06 3.415-6.645 2.64 1.119-0.051 0.144-2.29-0.215c-0.246-0.021-0.425-0.003-0.536 0.053-0.109 0.065-0.218 0.205-0.329 0.419v0l-1.574 3.063 4.146 2.132 1.031-2.007c0.11-0.215 0.153-0.386 0.128-0.511-0.026-0.126-0.134-0.261-0.325-0.405v0l-0.973-0.794 0.083-0.162 3.457 1.777-0.083 0.162-1.212-0.329c-0.227-0.072-0.4-0.081-0.518-0.029-0.118 0.053-0.232 0.187-0.342 0.402v0l-1.031 2.006 4.639 2.385 1.561-3.036c0.11-0.215 0.157-0.387 0.141-0.517-0.019-0.138-0.106-0.3-0.261-0.485v0z" fill="#77d4fc" data-fill-palette-color="primary"></path><path d="M260.504 197.811c0.242-0.576 0.34-1.146 0.293-1.712-0.046-0.566-0.228-1.068-0.546-1.507-0.318-0.439-0.746-0.772-1.285-0.998v0c-0.489-0.205-0.942-0.272-1.358-0.2-0.423 0.07-0.817 0.228-1.182 0.476-0.366 0.247-0.794 0.598-1.285 1.055v0c-0.554 0.503-1.004 0.882-1.351 1.136-0.347 0.255-0.704 0.418-1.069 0.49-0.359 0.075-0.743 0.026-1.151-0.145v0c-0.569-0.239-0.948-0.602-1.137-1.089-0.189-0.487-0.161-1.021 0.084-1.603v0c0.403-0.959 1.186-1.471 2.349-1.536v0c0.573-0.029 1.203 0.014 1.89 0.127v0l0.016-0.168-3.116-1.134-0.075 0.176 0.538 0.619c-0.458 0.259-0.826 0.527-1.103 0.804-0.27 0.28-0.485 0.608-0.643 0.986v0c-0.231 0.551-0.325 1.094-0.281 1.629 0.047 0.529 0.223 1.004 0.528 1.423 0.304 0.419 0.714 0.737 1.227 0.953v0c0.501 0.211 0.976 0.276 1.425 0.195 0.443-0.083 0.848-0.252 1.217-0.505 0.362-0.256 0.766-0.592 1.211-1.01v0c0.529-0.513 0.968-0.9 1.318-1.161 0.356-0.258 0.718-0.426 1.085-0.505 0.377-0.082 0.775-0.035 1.197 0.143v0c0.6 0.252 0.993 0.643 1.178 1.172 0.194 0.526 0.151 1.123-0.13 1.791v0c-0.33 0.786-0.862 1.305-1.594 1.559v0c-0.359 0.126-0.748 0.185-1.166 0.176-0.415 0-0.97-0.065-1.665-0.197v0l-0.027 0.142 3.43 1.222 0.074-0.176-0.646-0.621c0.364-0.189 0.699-0.46 1.007-0.811 0.31-0.357 0.558-0.756 0.743-1.196z" fill="#77d4fc" data-fill-palette-color="primary"></path><path d="M263.866 188.694c0.198-0.592 0.253-1.168 0.164-1.729-0.088-0.561-0.307-1.048-0.657-1.463-0.35-0.414-0.801-0.714-1.355-0.899v0c-0.503-0.168-0.959-0.201-1.369-0.098-0.416 0.101-0.798 0.289-1.144 0.562-0.346 0.273-0.747 0.656-1.202 1.148v0c-0.514 0.543-0.935 0.954-1.263 1.234-0.327 0.28-0.67 0.469-1.029 0.569-0.353 0.101-0.739 0.082-1.159-0.059v0c-0.586-0.196-0.991-0.53-1.215-1.002-0.224-0.472-0.236-1.007-0.036-1.605v0c0.33-0.987 1.073-1.556 2.228-1.707v0c0.569-0.071 1.201-0.076 1.895-0.013v0l0.003-0.169-3.193-0.899-0.06 0.182 0.581 0.577c-0.438 0.292-0.784 0.587-1.039 0.884-0.249 0.299-0.438 0.643-0.568 1.031v0c-0.19 0.567-0.242 1.115-0.158 1.646 0.086 0.524 0.297 0.984 0.632 1.379 0.335 0.395 0.766 0.681 1.294 0.859v0c0.516 0.173 0.994 0.202 1.436 0.088 0.435-0.116 0.827-0.314 1.176-0.594 0.342-0.282 0.719-0.648 1.132-1.097v0c0.489-0.551 0.898-0.97 1.228-1.257 0.336-0.284 0.684-0.479 1.045-0.584 0.37-0.11 0.771-0.092 1.204 0.052v0c0.617 0.207 1.038 0.567 1.262 1.082 0.233 0.51 0.234 1.108 0.004 1.796v0c-0.271 0.808-0.762 1.366-1.473 1.673v0c-0.348 0.152-0.732 0.24-1.15 0.262-0.414 0.031-0.972 0.007-1.675-0.072v0l-0.016 0.143 3.511 0.963 0.061-0.181-0.69-0.571c0.348-0.216 0.663-0.511 0.943-0.884 0.283-0.38 0.5-0.795 0.652-1.247z" fill="#77d4fc" data-fill-palette-color="primary"></path><path d="M10.145 147.478c0-1.783 1.445-3.228 3.228-3.228 1.783 0 3.228 1.445 3.228 3.228 0 1.783-1.445 3.228-3.228 3.228-1.783 0-3.228-1.445-3.228-3.228z" fill="#77d4fc" data-fill-palette-color="primary"></path><path d="M263.651 147.478c0-1.783 1.445-3.228 3.228-3.228 1.783 0 3.228 1.445 3.227 3.228 0 1.783-1.445 3.228-3.227 3.228-1.783 0-3.228-1.445-3.228-3.228z" fill="#77d4fc" data-fill-palette-color="primary"></path></g></svg></g></svg></g></svg></g></svg></g><defs></defs></svg><rect width="279.72" height="279.72" fill="none" stroke="none" visibility="hidden"></rect></g></svg></g></svg>